HIERARCHY
ROOT Hips
{
  OFFSET 5.84602e-005 68.8428 3.50346
  CHANNELS 6 Xposition Yposition Zposition Zrotation Xrotation Yrotation
  JOINT Spine
  {
    OFFSET 0 8.597 -4.6522
    CHANNELS 3 Zrotation Xrotation Yrotation
    JOINT Spine1
    {
      OFFSET 0 7.8454 0.4098
      CHANNELS 3 Zrotation Xrotation Yrotation
      JOINT Spine2
      {
        OFFSET 0 9.7078 -2.1609
        CHANNELS 3 Zrotation Xrotation Yrotation
        JOINT Neck
        {
          OFFSET 0 21.8761 -0.4549
          CHANNELS 3 Zrotation Xrotation Yrotation
          JOINT Head
          {
            OFFSET 0 12.3537 3.3602
            CHANNELS 3 Zrotation Xrotation Yrotation
            End Site
            {
              OFFSET 0.0001 18.9506 0.5657
            }
          }
        }
        JOINT LeftShoulder
        {
          OFFSET 2.2086 21.1115 7.2329
          CHANNELS 3 Zrotation Xrotation Yrotation
          JOINT LeftArm
          {
            OFFSET 13.1193 3.0282 -4.8998
            CHANNELS 3 Zrotation Xrotation Yrotation
            JOINT LeftForeArm
            {
              OFFSET 27.4081 -0.0973053 -0.2375
              CHANNELS 3 Zrotation Xrotation Yrotation
              JOINT LeftHand
              {
                OFFSET 22.8641 0.0662994 -0.1369
                CHANNELS 3 Zrotation Xrotation Yrotation
                JOINT LeftHandIndex1
                {
                  OFFSET 8.8614 0.775009 2.4612
                  CHANNELS 3 Zrotation Xrotation Yrotation
                  JOINT LeftHandIndex2
                  {
                    OFFSET 3.3146 -0.808304 0.5841
                    CHANNELS 3 Zrotation Xrotation Yrotation
                    JOINT LeftHandIndex3
                    {
                      OFFSET 2.2628 -0.552002 0.3989
                      CHANNELS 3 Zrotation Xrotation Yrotation
                      End Site
                      {
                        OFFSET 1.6102 -0.4807 0.2612
                      }
                    }
                  }
                }
                JOINT LeftHandMiddle1
                {
                  OFFSET 8.9937 0.895004 0.2143
                  CHANNELS 3 Zrotation Xrotation Yrotation
                  JOINT LeftHandMiddle2
                  {
                    OFFSET 4.0984 0.0113983 -0.0242
                    CHANNELS 3 Zrotation Xrotation Yrotation
                    JOINT LeftHandMiddle3
                    {
                      OFFSET 2.2716 0.00689697 -0.0138001
                      CHANNELS 3 Zrotation Xrotation Yrotation
                      End Site
                      {
                        OFFSET 2.0404 -0.1441 0.0027
                      }
                    }
                  }
                }
                JOINT LeftHandRing1
                {
                  OFFSET 8.5234 0.597198 -2.0164
                  CHANNELS 3 Zrotation Xrotation Yrotation
                  JOINT LeftHandRing2
                  {
                    OFFSET 3.7188 -0.188293 -0.2328
                    CHANNELS 3 Zrotation Xrotation Yrotation
                    JOINT LeftHandRing3
                    {
                      OFFSET 2.1191 -0.106598 -0.1332
                      CHANNELS 3 Zrotation Xrotation Yrotation
                      End Site
                      {
                        OFFSET 1.8737 -0.2304 -0.0886
                      }
                    }
                  }
                }
                JOINT LeftHandPinky1
                {
                  OFFSET 7.9094 -0.601089 -3.4825
                  CHANNELS 3 Zrotation Xrotation Yrotation
                  JOINT LeftHandPinky2
                  {
                    OFFSET 2.2874 -0.477005 -0.6314
                    CHANNELS 3 Zrotation Xrotation Yrotation
                    JOINT LeftHandPinky3
                    {
                      OFFSET 1.6774 -0.349396 -0.4633
                      CHANNELS 3 Zrotation Xrotation Yrotation
                      End Site
                      {
                        OFFSET 1.4888 -0.4091 -0.3416
                      }
                    }
                  }
                }
                JOINT LeftHandThumb1
                {
                  OFFSET 1.833 -1.3875 1.3896
                  CHANNELS 3 Zrotation Xrotation Yrotation
                  JOINT LeftHandThumb2
                  {
                    OFFSET 3.4129 -1.121 2.5732
                    CHANNELS 3 Zrotation Xrotation Yrotation
                    JOINT LeftHandThumb3
                    {
                      OFFSET 2.2474 -0.804199 1.6192
                      CHANNELS 3 Zrotation Xrotation Yrotation
                      End Site
                      {
                        OFFSET 1.6527 -0.5689 1.1317
                      }
                    }
                  }
                }
              }
            }
          }
        }
        JOINT RightShoulder
        {
          OFFSET -2.2086 21.1115 7.2329
          CHANNELS 3 Zrotation Xrotation Yrotation
          JOINT RightArm
          {
            OFFSET -13.1216 3.0287 -4.9007
            CHANNELS 3 Zrotation Xrotation Yrotation
            JOINT RightForeArm
            {
              OFFSET -27.4081 -0.0973053 -0.2375
              CHANNELS 3 Zrotation Xrotation Yrotation
              JOINT RightHand
              {
                OFFSET -22.8641 0.0664063 -0.1369
                CHANNELS 3 Zrotation Xrotation Yrotation
                JOINT RightHandIndex1
                {
                  OFFSET -8.8614 0.774994 2.4612
                  CHANNELS 3 Zrotation Xrotation Yrotation
                  JOINT RightHandIndex2
                  {
                    OFFSET -3.3146 -0.808304 0.5841
                    CHANNELS 3 Zrotation Xrotation Yrotation
                    JOINT RightHandIndex3
                    {
                      OFFSET -2.2628 -0.552002 0.3989
                      CHANNELS 3 Zrotation Xrotation Yrotation
                      End Site
                      {
                        OFFSET -1.6102 -0.4807 0.2612
                      }
                    }
                  }
                }
                JOINT RightHandMiddle1
                {
                  OFFSET -8.9937 0.894989 0.2143
                  CHANNELS 3 Zrotation Xrotation Yrotation
                  JOINT RightHandMiddle2
                  {
                    OFFSET -4.0984 0.0113983 -0.0242
                    CHANNELS 3 Zrotation Xrotation Yrotation
                    JOINT RightHandMiddle3
                    {
                      OFFSET -2.2716 0.00691223 -0.0138001
                      CHANNELS 3 Zrotation Xrotation Yrotation
                      End Site
                      {
                        OFFSET -2.0404 -0.1441 0.0027
                      }
                    }
                  }
                }
                JOINT RightHandRing1
                {
                  OFFSET -8.5234 0.597198 -2.0164
                  CHANNELS 3 Zrotation Xrotation Yrotation
                  JOINT RightHandRing2
                  {
                    OFFSET -3.7188 -0.188309 -0.2328
                    CHANNELS 3 Zrotation Xrotation Yrotation
                    JOINT RightHandRing3
                    {
                      OFFSET -2.1191 -0.106598 -0.1332
                      CHANNELS 3 Zrotation Xrotation Yrotation
                      End Site
                      {
                        OFFSET -1.8737 -0.2304 -0.0886
                      }
                    }
                  }
                }
                JOINT RightHandPinky1
                {
                  OFFSET -7.9094 -0.601105 -3.4825
                  CHANNELS 3 Zrotation Xrotation Yrotation
                  JOINT RightHandPinky2
                  {
                    OFFSET -2.2874 -0.477005 -0.6314
                    CHANNELS 3 Zrotation Xrotation Yrotation
                    JOINT RightHandPinky3
                    {
                      OFFSET -1.6774 -0.349396 -0.4633
                      CHANNELS 3 Zrotation Xrotation Yrotation
                      End Site
                      {
                        OFFSET -1.4888 -0.4091 -0.3416
                      }
                    }
                  }
                }
                JOINT RightHandThumb1
                {
                  OFFSET -1.833 -1.38751 1.3896
                  CHANNELS 3 Zrotation Xrotation Yrotation
                  JOINT RightHandThumb2
                  {
                    OFFSET -3.41299 -1.12099 2.5732
                    CHANNELS 3 Zrotation Xrotation Yrotation
                    JOINT RightHandThumb3
                    {
                      OFFSET -2.24741 -0.804108 1.6192
                      CHANNELS 3 Zrotation Xrotation Yrotation
                      End Site
                      {
                        OFFSET -1.6527 -0.5689 1.1317
                      }
                    }
                  }
                }
              }
            }
          }
        }
      }
    }
  }
  JOINT RightUpLeg
  {
    OFFSET -9.1966 3.8861 -0.7581
    CHANNELS 3 Zrotation Xrotation Yrotation
    JOINT RightLeg
    {
      OFFSET -0.7359 -41.0265 0
      CHANNELS 3 Zrotation Xrotation Yrotation
      JOINT RightFoot
      {
        OFFSET 0 -40.2855 0
        CHANNELS 3 Zrotation Xrotation Yrotation
        JOINT RightToeBase
        {
          OFFSET 0 -5.6122 11.7359
          CHANNELS 3 Zrotation Xrotation Yrotation
          End Site
          {
            OFFSET 0 0 7.8731
          }
        }
      }
    }
  }
  JOINT LeftUpLeg
  {
    OFFSET 9.1965 3.8864 -0.7581
    CHANNELS 3 Zrotation Xrotation Yrotation
    JOINT LeftLeg
    {
      OFFSET 0.7359 -41.0268 0
      CHANNELS 3 Zrotation Xrotation Yrotation
      JOINT LeftFoot
      {
        OFFSET 0 -40.2855 0
        CHANNELS 3 Zrotation Xrotation Yrotation
        JOINT LeftToeBase
        {
          OFFSET 0 -5.6122 11.7359
          CHANNELS 3 Zrotation Xrotation Yrotation
          End Site
          {
            OFFSET 0 0 7.8731
          }
        }
      }
    }
  }
}
MOTION
Frames:	4
Frame Time:	0.0333333
5.84602e-005 68.8428 3.50346 0 0 -0 0 0 -0 0 0 -0 0 0 -0 0 0 -0 0 0 -0 0 0 -0 0 0 -0 0 0 -0 0 0 -0 0 0 -0 0 0 -0 0 0 -0 0 0 -0 -0.0146107 -8.87603e-005 -2.63497e-007 2.99804e-018 -2.42657e-020 -1.42182e-022 0 0 -0 -0.0187562 -0.001176 5.858e-005 5.06224e-018 3.88251e-019 1.21329e-020 0 0 -0 -0.012269 -0.00324817 0.000675346 -1.74678e-018 3.88251e-019 -0 0 0 -0 0 0 -0 0 0 -0 0 0 -0 0 0 -0 0 0 -0 0 0 -0 0 0 -0 0 0 -0 0 0 -0 0 0 -0 0.0149955 -9.10982e-005 2.64101e-007 -9.69331e-018 1.21329e-020 -4.7394e-023 0 0 -0 0.0189956 -0.00119102 -5.96516e-005 -5.41541e-019 0 2.42657e-020 0 0 -0 0.0122698 -0.00324857 -0.000673756 -2.00796e-019 0 -1.94126e-019 0 0 -0 0 0 -0 0 0 -0 3.39842 1.33031 -0.0637918 -5.65207e-008 0.834868 -0.000436188 -3.39935 -2.16518 -0.0642563 -8.89002e-024 -1.18485e-023 -1.48106e-024 -3.39844 1.35642 0.0640283 -3.18788e-007 0.782166 -0.000588827 3.39931 -2.13858 0.0634662 1.1399e-023 0 -0 
-0.507555 72.3891 13.6595 -3.28563e-015 28.0015 180 -0.624805 3.82627 -0.221782 -1.23889 7.65473 -0.402979 -1.23888 7.65473 -0.402979 -6.40391e-007 8.57645e-005 -3.44199e-006 2.14817e-007 8.49308e-007 2.16772e-007 -25.9665 -9.11993 -26.1614 -10.6232 -21.6495 -22.3995 -18.8046 5.84611 -34.0192 -51.5971 -7.21727 6.68805 5.865e-007 -3.9781e-007 -4.71759e-007 3.18055e-015 3.77691e-015 1.19271e-015 1.173e-006 -7.95619e-007 -9.43518e-007 5.865e-007 -3.9781e-007 -4.71759e-007 -0.0146153 -8.7822e-005 6.74508e-007 1.17302e-006 -7.95499e-007 -9.4362e-007 5.865e-007 -3.9781e-007 -4.71759e-007 -0.018819 -0.0011757 5.40162e-005 1.17301e-006 -7.95463e-007 -9.43661e-007 5.865e-007 -3.9781e-007 -4.71759e-007 -0.0122065 -0.00323151 0.000671677 1.83772e-006 -1.59645e-006 6.08599e-007 5.865e-007 -3.9781e-007 -4.71759e-007 3.18055e-015 3.77691e-015 1.19271e-015 1.173e-006 -7.95619e-007 -9.43518e-007 25.5282 1.26602 7.71092 35.6626 -7.1096 14.7134 17.6837 7.84745 2.4761 52.3105 3.82047 9.57231 -2.32094e-006 8.30013e-007 -2.59091e-006 -4.29133e-007 -5.25885e-007 1.08492e-006 7.15222e-007 8.76475e-007 -1.8082e-006 -2.32094e-006 8.30013e-007 -2.59091e-006 0.0149932 -9.09695e-005 -1.29097e-006 7.15231e-007 8.76238e-007 -1.80831e-006 -2.32094e-006 8.30013e-007 -2.59091e-006 0.0190225 -0.0012017 -6.04793e-005 7.15216e-007 8.76174e-007 -1.80835e-006 -2.32094e-006 8.30013e-007 -2.59091e-006 0.0122762 -0.00324695 -0.000674344 7.15174e-007 8.76283e-007 -1.80831e-006 -2.32094e-006 8.30013e-007 -2.59091e-006 -4.29133e-007 -5.25885e-007 1.08492e-006 7.15222e-007 8.76475e-007 -1.8082e-006 -173.023 -28.1804 177.198 -130.869 40.9198 106.725 4.81257 -8.59479 22.4247 -2.28513e-006 -7.75918e-008 -4.91005e-007 96.5761 -25.0611 116.762 -156.577 34.9413 121.281 18.4528 29.7985 9.82388 -7.78658e-010 -1.01784e-008 2.46502e-008 
-0.449661 72.0079 13.6488 -3.21566e-015 28.445 180 -0.623736 4.02562 -0.220933 -1.23646 8.05336 -0.39928 -1.23646 8.05338 -0.39928 0.138945 -0.196281 0.221168 0.0523102 -0.223431 0.0196361 -25.4525 -9.89152 -27.2313 -10.4261 -21.7479 -22.0115 -18.4481 5.60172 -33.3193 -52.2196 -7.47011 6.28268 1.80973e-006 6.59244e-007 3.36446e-007 -1.2025e-007 1.19055e-005 2.42158e-006 7.15305e-007 1.05133e-006 3.28765e-006 1.80973e-006 6.59244e-007 3.36446e-007 -0.0146718 -7.86691e-005 -2.57682e-006 7.15495e-007 1.05091e-006 3.28779e-006 1.80973e-006 6.59244e-007 3.36446e-007 -0.0187263 -0.00117172 5.84741e-005 7.15579e-007 1.05081e-006 3.28782e-006 1.80973e-006 6.59244e-007 3.36446e-007 -0.0123219 -0.00325638 0.000685322 7.15562e-007 1.05102e-006 3.28774e-006 1.80973e-006 6.59244e-007 3.36446e-007 -1.2025e-007 1.19055e-005 2.42158e-006 7.15305e-007 1.05133e-006 3.28765e-006 23.9262 0.295074 7.56839 36.413 -6.93354 15.0822 19.493 7.9299 2.81087 51.4339 3.0398 9.52806 -4.77083e-015 1.27222e-014 1.27222e-014 -1.43199e-007 -1.75177e-007 3.61577e-007 4.29597e-007 5.25532e-007 -1.08473e-006 -4.77083e-015 1.27222e-014 1.27222e-014 0.0149552 -9.49359e-005 -4.76767e-006 4.29603e-007 5.2539e-007 -1.0848e-006 -4.77083e-015 1.27222e-014 1.27222e-014 0.0190256 -0.00119476 -6.09202e-005 4.29594e-007 5.25351e-007 -1.08482e-006 -4.77083e-015 1.27222e-014 1.27222e-014 0.0122484 -0.00324254 -0.000677987 4.29569e-007 5.25417e-007 -1.0848e-006 -4.77083e-015 1.27222e-014 1.27222e-014 -1.43199e-007 -1.75177e-007 3.61577e-007 4.29597e-007 5.25532e-007 -1.08473e-006 -173.212 -28.3963 177.063 -130.53 41.1154 106.528 4.55897 -8.04114 22.3048 1.38799e-006 3.39625e-007 -8.97275e-007 97.0158 -25.1107 117.036 -156.601 34.9146 121.312 18.0227 30.3586 10.4143 -7.41715e-015 -3.97569e-016 7.95139e-016 
-0.391757 71.6272 13.6384 -3.14498e-015 28.8893 180 -0.622638 4.22517 -0.220075 -1.234 8.45251 -0.395573 -1.234 8.4525 -0.395573 0.278722 -0.3922 0.442955 0.104734 -0.447007 0.0394917 -24.9507 -10.6745 -28.2995 -10.228 -21.8451 -21.6229 -18.0884 5.36147 -32.6176 -52.8446 -7.71872 5.87406 5.85562e-007 -3.99295e-007 -4.71869e-007 -5.85562e-007 3.99295e-007 4.7187e-007 -1.17112e-006 7.9859e-007 9.43739e-007 5.85562e-007 -3.99295e-007 -4.71869e-007 -0.0146316 -8.88104e-005 -2.92344e-006 -1.17114e-006 7.98469e-007 9.43842e-007 5.85562e-007 -3.99295e-007 -4.71869e-007 -0.0187615 -0.00117217 6.25779e-005 -1.17113e-006 7.98435e-007 9.43882e-007 5.85562e-007 -3.99295e-007 -4.71869e-007 -0.0122624 -0.00324841 0.00068632 -5.06401e-007 -7.43204e-009 2.46469e-006 5.85562e-007 -3.99295e-007 -4.71869e-007 -5.85562e-007 3.99295e-007 4.7187e-007 -1.17112e-006 7.9859e-007 9.43739e-007 22.3145 -0.675773 7.39796 37.1625 -6.75254 15.4488 21.3102 8.0232 3.14439 50.5557 2.25857 9.4718 -2.9114e-007 -3.06717e-006 -1.03901e-006 1.00793e-006 3.9425e-006 -7.68551e-007 -2.9114e-007 -3.06717e-006 -1.03901e-006 -2.9114e-007 -3.06717e-006 -1.03901e-006 0.0149845 -8.97439e-005 -9.03183e-007 -1.11286e-007 -1.49232e-006 8.39999e-008 -2.9114e-007 -3.06717e-006 -1.03901e-006 0.0189638 -0.00118531 -5.93076e-005 -2.90963e-007 -3.06735e-006 -1.0385e-006 -2.9114e-007 -3.06717e-006 -1.03901e-006 0.0122585 -0.00325019 -0.000682914 -2.91031e-007 -3.06731e-006 -1.03868e-006 -2.9114e-007 -3.06717e-006 -1.03901e-006 1.00793e-006 3.9425e-006 -7.68551e-007 -2.9114e-007 -3.06717e-006 -1.03901e-006 -173.403 -28.6115 176.926 -130.19 41.31 106.329 4.30659 -7.48665 22.1873 -6.36111e-015 3.18055e-015 -0 97.4564 -25.1582 117.31 -156.625 34.8879 121.343 17.5825 30.9158 11.0139 6.12367e-010 7.61666e-009 -1.84939e-008 
